<svg viewBox="0 0 512 512" fill="none" xmlns="http://www.w3.org/2000/svg"><path d="M434 277v-1 1zM265 127v-1 1zm247 24c0-3-4-5-6-4h-5l-3-1-8-2-8-1-9-2h-8l-7-1h-8l-15-1-9-1-11 1-9 1h-14l-2-2-3-8-8-15-8-15-26-40-9-13-9-13c-7-9-14-17-23-24l-3-1h-2l-4 3-8 15-3 8-4 8-5 16-6 15-3 7-2 7-2 7-2 8v-1l-3 10-2 10-2 8-4 12-6 2-16 6-6 3-31 13-23 12-10 5-6 4c-2 0-3 2-4 3l-5 3-6 4-4 2-3 3v5l6 2 1 2 9 4 6 3 7 4 14 5 14 8 6 4 8 4 8 5 6 4 7 4 5 3-4 13-4 19-4 16-2 16-1 8v34l1 4 4 2h4l5 2c2 0 4 0 5-2h4l4-2 7-2c3 0 5-2 7-3l15-7 15-8 15-8c8-4 15-11 23-15l10-9 7-5 11 7 14 8 7 3 6 5 16 9 11 7 25 14 5 3 4 1 4 2 5-1 1-5 2-4v-15l-1-9-2-15-4-17-4-16-3-12v-1l-4-11-2-6-2-4 7-5 5-6 7-7 6-6 6-5 16-19 19-22 9-11 5-6 3-5 1-4v-3c2-1 2-3 2-5zm-21 18l-7 10-9 9-8 9-10 12-10 11-5 6-5 5-4 3-4 4-10 8-1 4h-2l-2 4c0 2 0 3 2 4v1l3 8 3 7 3 8v-2l4 17 3 16 6 31v14l-10-6-14-7-15-9-15-9-11-6-5-3-6-3-20-13-4-1h-2c-2 0-3 0-4 2v1l-7 5-11 8-20 13-14 8-14 8-14 7-14 5-6 2h2l-4 1-3 1h-2l-2 1v-29l2-16 1-8 1-8 2-9 2-8 1-7 3-8v1l2-9 1-2c2-2 2-6-1-8l-14-8-7-5-8-4-14-8-8-4-7-3-13-7-10-4-7-3-2-1 4-4 5-3 4-2 13-7c4-4 9-6 14-8l15-8 16-7 9-3 9-4 10-4 9-3 3-2 2-2 5-21 1-8 5-14 2-7 2-8 3-7 3-8 2-7 3-8 2-8 4-8 5-12 4-9c6 4 10 9 14 15l14 18 5 7 6 10 11 17 18 29 8 15 3 8 3 6 1 3c1 2 4 3 7 2l2-1h10l6-1h36l9 1h6l9 1 8 1 16 2 3 1h3v2l-8 11v-1zM123 333l-3 1-15 11-10 8-3-2-4-8-2-4 6-5 7-2 4-2 4-2c3-1 4-4 3-7a5 5 0 00-5-4l-2 1-4 2-4 1-8 4-7 5-1-2-5-10-3-3h-4l-3 3v4l4 8 4 8-8 9-6-8a5 5 0 00-4-2l-3 1c-3 1-3 5-2 7l7 10-7 8-9 15-7 9-4 8-8 15-5 9-4 8c-4 9-7 18-9 28v5l-2 8-1 9v22c0 2 3 4 6 4s5-3 5-6a191 191 0 013-39l4-14c3-10 7-21 12-30l7-12 6-10 10-15 5-7 5-6 3 5 5 5-2 2c-11 15-19 32-22 50l-2 12c0 3 2 6 4 7 3 0 6-2 7-5l4-21 5-13 3-7 7-13 2-3 2 1 7 7c1 2 5 1 6-1l2-4-2-4-4-4-3-4 1-1 6-4 11 14 13 16c1 2 5 3 7 1 2-1 3-5 2-7l-12-15-10-13-2-3 7-4 17-15a5 5 0 002-8 6 6 0 00-5-3l1 1zm-44 34l-4-6-4-5 5-5 2-3 5 8 3 4-7 7z" /></svg>
